Coordinates
nRows=17
nColumns=24

# SIMM Motion File Header:
name Coordinates
datacolumns 24
datarows 17
otherdata 1
range 0.59933000000000003000 0.61533000000000004000

Units are S.I. units (second, meters, Newtons, ...)
Angles are in degrees.

endheader
time	pelvis_tx	pelvis_ty	pelvis_tz	pelvis_tilt	pelvis_list	pelvis_rotation	hip_flexion_r	hip_adduction_r	hip_rotation_r	knee_angle_r	ankle_angle_r	subtalar_angle_r	mtp_angle_r	hip_flexion_l	hip_adduction_l	hip_rotation_l	knee_angle_l	ankle_angle_l	subtalar_angle_l	mtp_angle_l	lumbar_extension	lumbar_bending	lumbar_rotation
      0.59933000000000003000	      1.68502689896684950000	      0.70345898150003328000	     -0.20161414416883028000	     -2.26239421418602980000	     -1.68552646684548240000	      5.05062884536056610000	     32.42037047718999100000	      2.61055386334351480000	     -4.88289819541268690000	    -13.47263105346213800000	     -4.54017976320510910000	      0.00000000000000626473	     -0.00000000000003834147	    -22.78343567604508700000	      1.09572303915233580000	     -7.00522086226282600000	    -11.00441898544957900000	     -4.47885385852999110000	      0.00000000000032678370	     -0.00000000000014627128	     -0.21181063293170824000	      2.48615289737008100000	     -1.54294008207768510000
      0.60033000000000003000	      1.68645817325119980000	      0.70352788046661419000	     -0.20153789122395749000	     -2.25103934189033830000	     -1.73122635791768300000	      5.02067326028016940000	     32.40377579676972900000	      2.69361030549090730000	     -4.79268404354240380000	    -13.65418541237363000000	     -4.59211972925453440000	      0.00000000000000625005	     -0.00000000000003837147	    -22.76871575682528400000	      1.03230806569673650000	     -7.03717673698047900000	    -11.19382704712952000000	     -4.74945915490518810000	      0.00000000000032815962	     -0.00000000000014704612	     -0.20137898447988548000	      2.56227543441802520000	     -1.56083341564562340000
      0.60133000000000003000	      1.68788897401417890000	      0.70360034050510722000	     -0.20145978820999497000	     -2.23932187920621480000	     -1.77706972007315000000	      4.99022278308015640000	     32.38649842676078800000	      2.77747482587079020000	     -4.70122068021929260000	    -13.83568450087247800000	     -4.64262303638797480000	      0.00000000000000621918	     -0.00000000000003837851	    -22.75231833640686900000	      0.96838710611625178000	     -7.06895587417762080000	    -11.38584111685318900000	     -5.02357142114848720000	      0.00000000000032959152	     -0.00000000000014792608	     -0.19175851152388421000	      2.63827505918937840000	     -1.57783402675727460000
      0.60233000000000003000	      1.68931920385778290000	      0.70367627827099932000	     -0.20137986443557027000	     -2.22724664892913850000	     -1.82304526045848680000	      4.95929942139232600000	     32.36853158239553400000	      2.86212118971799300000	     -4.60855057997189550000	    -14.01709498637919900000	     -4.69161774023523840000	      0.00000000000000619300	     -0.00000000000003837568	    -22.73421915986728700000	      0.90395839789390375000	     -7.10055840275456780000	    -11.58048441896607500000	     -5.30115250000264740000	      0.00000000000033103949	     -0.00000000000014884687	     -0.18295368056254899000	      2.71413258068603770000	     -1.59394200944188100000
      0.60333000000000003000	      1.69074876958835210000	      0.70375560690236050000	     -0.20129815145690960000	     -2.21481898265735520000	     -1.86914155995423090000	      4.92792581185924660000	     32.34986881225899700000	      2.94752209113865500000	     -4.51471877878431640000	    -14.19838326751425400000	     -4.73903291006330290000	      0.00000000000000617051	     -0.00000000000003839033	    -22.71439363986520700000	      0.83902048396955753000	     -7.13198504003002220000	    -11.77777919872667100000	     -5.58216026397757670000	      0.00000000000033250954	     -0.00000000000014985267	     -0.17496791216510163000	      2.78982896282347690000	     -1.60915851010117690000
      0.60433000000000003000	      1.69217758219252670000	      0.70383823650104516000	     -0.20121468296310821000	     -2.20204472221363630000	     -1.91534708318394320000	      4.89612517368891530000	     32.33050402029555700000	      3.03364918641798420000	     -4.41977282857284410000	    -14.37951549292164300000	     -4.78479885022340310000	      0.00000000000000614381	     -0.00000000000003840354	    -22.69281687483047000000	      0.77357222917036750000	     -7.16323710283984650000	    -11.97774667475400200000	     -5.86654856471590320000	      0.00000000000033398344	     -0.00000000000015086964	     -0.16780357622055814000	      2.86534533647369920000	     -1.62348568580527090000
      0.60533000000000003000	      1.69360555681534250000	      0.70392407461427298000	     -0.20112949467040461000	     -2.18893021659589730000	     -1.96165018436812600000	      4.86392127039531630000	     32.31043147295000000000	      3.12047312031115090000	     -4.32376274153931830000	    -14.56045754041623000000	     -4.82884720527709630000	      0.00000000000000611297	     -0.00000000000003839466	    -22.66946367308602800000	      0.70761283714846324000	     -7.19431651011833400000	    -12.18040699193892000000	     -6.15426719096097410000	      0.00000000000033546757	     -0.00000000000015193157	     -0.16146199187812171000	      2.94066300696851760000	     -1.63692667069090740000
      0.60633000000000004000	      1.69503261273997460000	      0.70401302671350552000	     -0.20104262421592900000	     -2.17548231893224080000	     -2.00803911313119880000	      4.83133837159243650000	     32.28964580586495700000	      3.20796355246542840000	     -4.22674093434469530000	    -14.74117499607773000000	     -4.87111106376845800000	      0.00000000000000607356	     -0.00000000000003836941	    -22.64430857732028800000	      0.64114186720851718000	     -7.22522578547174010000	    -12.38577917447982900000	     -6.44526182664844960000	      0.00000000000033696891	     -0.00000000000015305675	     -0.15594342771431516000	      3.01576346166351210000	     -1.64948554233889280000
      0.60733000000000004000	      1.69645867336908320000	      0.70410499667066406000	     -0.20095411105091343000	     -2.16170838346225440000	     -2.05450202028451570000	      4.79840121480079600000	     32.26814203020214900000	      3.29608918400851800000	     -4.12876217222085360000	    -14.92163313348182500000	     -4.91152506179608930000	      0.00000000000000603547	     -0.00000000000003835120	    -22.61732588938504300000	      0.57415925102228738000	     -7.25596805978641330000	    -12.59388107904784200000	     -6.73947400905266210000	      0.00000000000033848313	     -0.00000000000015423169	     -0.15124710211152229000	      3.09062837758600480000	     -1.66116728809488310000
      0.60833000000000004000	      1.69788366620754850000	      0.70419988723170956000	     -0.20086399633326435000	     -2.14761626265082880000	     -2.10102696371925290000	      4.76513496711698360000	     32.24591553884929600000	      3.38481778441962610000	     -4.02988351331221660000	    -15.10179689313591200000	     -4.95002549410070980000	      0.00000000000000599793	     -0.00000000000003834429	    -22.58848969527814200000	      0.50666530918187402000	     -7.28654707392450880000	    -12.80472934814694800000	     -7.03684108544108170000	      0.00000000000033999216	     -0.00000000000015541134	     -0.14737118374999378000	      3.16523962931693960000	     -1.67197777118661950000
      0.60933000000000004000	      1.69930752282738170000	      0.70429760048300138000	     -0.20077232281504168000	     -2.13321430701586000000	     -2.14760192255445940000	      4.73156517995151750000	     32.22296211169307900000	      3.47411622895181300000	     -3.93016421416796160000	    -15.28163078028097700000	     -4.98655049011183670000	      0.00000000000000596311	     -0.00000000000003833736	    -22.55777388700612500000	      0.43866076163204121000	     -7.31696718825466610000	    -13.01833936922746000000	     -7.33729615092941150000	      0.00000000000034147537	     -0.00000000000015655304	     -0.14431279067893973000	      3.23957930688067420000	     -1.68192368965007110000
      0.61033000000000004000	      1.70073017872970400000	      0.70439803825186664000	     -0.20067913474021379000	     -2.11851136179927300000	     -2.19421481117057790000	      4.69771774196043610000	     32.19927790874642400000	      3.56395054382883280000	     -3.82966559826411900000	    -15.46109875024649800000	     -5.02104003389404420000	      0.00000000000000593596	     -0.00000000000003833330	    -22.52515219467014900000	      0.37014673456214292000	     -7.34723339059207350000	    -13.23472524026339900000	     -7.64076803574138270000	      0.00000000000034297979	     -0.00000000000015773248	     -0.14206800022399399000	      3.31362973427285110000	     -1.69101253327305770000
      0.61133000000000004000	      1.70215157298572330000	      0.70450110234716723000	     -0.20058447778690514000	     -2.10351675692694550000	     -2.24085347523198890000	      4.66361884323415770000	     32.17485945047018000000	      3.65428594029867290000	     -3.72845100557754710000	    -15.64016432535355100000	     -5.05343599173999180000	      0.00000000000000591084	     -0.00000000000003832531	    -22.49059824567444500000	      0.30112477496187656000	     -7.37735128271719450000	    -13.45389973455069400000	     -7.94718133342473630000	      0.00000000000034450103	     -0.00000000000015896543	     -0.14063188055004838000	      3.38737346882861880000	     -1.69925255134236910000
      0.61233000000000004000	      1.70357164777265040000	      0.70460669473384652000	     -0.20048839902513194000	     -2.08824029856865230000	     -2.28750569163971870000	      4.62929493702878860000	     32.14970359114964500000	      3.74508685543745700000	     -3.62658573556351540000	    -15.81879068843707800000	     -5.08368225207532910000	      0.00000000000000588383	     -0.00000000000003831900	    -22.45408562946813900000	      0.23159686040103755000	     -7.40732706742871460000	    -13.67587427130420600000	     -8.25645640425512890000	      0.00000000000034600321	     -0.00000000000016015416	     -0.13999852662080969000	      3.46079330652358810000	     -1.70665271717634860000
      0.61333000000000004000	      1.70499034789411440000	      0.70471471770396343000	     -0.20039094687350928000	     -2.07269226186299220000	     -2.33415917494238820000	      4.59477269756063490000	     32.12380748736436000000	      3.83631700106649330000	     -3.52413694886353920000	    -15.99694068946775800000	     -5.11172480634775540000	      0.00000000000000585955	     -0.00000000000003833409	    -22.41558796067608500000	      0.16156540351617149000	     -7.43716754179173200000	    -13.90065889058321600000	     -8.56850938095479540000	      0.00000000000034749026	     -0.00000000000016133379	     -0.14016109542801336000	      3.53387229513612190000	     -1.71322268835887660000
      0.61433000000000004000	      1.70640762030117290000	      0.70482507404877015000	     -0.20029217105596744000	     -2.05688338361488170000	     -2.38080158382788150000	      4.56007897782980990000	     32.09716856699851900000	      3.92793941270682900000	     -3.42117356874155830000	    -16.17457685157426500000	     -5.13751182912656020000	      0.00000000000000583250	     -0.00000000000003835622	    -22.37507894175655200000	      0.09103325661750040500	     -7.46688009045866790000	    -14.12826222815403200000	     -8.88325217454439910000	      0.00000000000034896862	     -0.00000000000016252728	     -0.14111184092267978000	      3.60659374740814040000	     -1.71897276695837100000
      0.61533000000000004000	      1.70782341361396030000	      0.70493766723188367000	     -0.20019212255858310000	     -2.04082485492840200000	     -2.42742052762058560000	      4.52524076754446810000	     32.06978449875328600000	      4.01991649846330730000	     -3.31776618260263680000	    -16.35166137692776500000	     -5.16099375830733460000	      0.00000000000000580282	     -0.00000000000003838279	    -22.33253242521828200000	      0.02000371647227185800	     -7.49647267896557070000	    -14.35869149025742400000	     -9.20059248027123640000	      0.00000000000035043627	     -0.00000000000016372406	     -0.14284214867246384000	      3.67894125411214870000	     -1.72391385980701490000
